# xmcd
#
# Track frame offsets:
# 150
# 14725
# 24666
# 38923
# 52136
# 62249
# 74181
# 85068
# 94180
# 108026
#
# Disc length: 1613 seconds
#
# Revision: 1
# Processed by: cddbd v1.5.2PL0 Copyright (c) Steve Scherf et al.
# Submitted via: CedeCatalogueitor 2.6.0.6 http://personales.ya.com/cdcatalogueitor
#
DISCID=8d064b0a
DTITLE=The Movies - American Oil
DYEAR=1900
DGENRE=
TTITLE0=Rock In The Slingshot
TTITLE1=North Star
TTITLE2=Peck The Chick
TTITLE3=Timothy James
TTITLE4=American Oil
TTITLE5=Ed
TTITLE6=The Man With Two Hats
TTITLE7=How I Learned To Drive
TTITLE8=If I Had The Cash
TTITLE9=Dougie
EXTD=
EXTT0=
EXTT1=
EXTT2=
EXTT3=
EXTT4=
EXTT5=
EXTT6=
EXTT7=
EXTT8=
EXTT9=
PLAYORDER=
